<svg width="500" height="320" viewBox="0 0 500 320" fill="none" xmlns="http://www.w3.org/2000/svg">
<rect width="500" height="320" fill="#1E1E1E"/>
<path d="M50.92 152.32C58.45 132.55 77.58 118.5 100 118.5C119.01 118.5 135.66 128.6 144.87 143.73" stroke="#808285" stroke-width="4" stroke-miterlimit="10" stroke-linecap="round" stroke-linejoin="round"/>
<path d="M48.57 181.58C47.87 178.16 47.5 174.62 47.5 171C47.5 164.42 48.71 158.13 50.92 152.32" stroke="#231F20" stroke-width="4" stroke-miterlimit="10" stroke-linecap="round" stroke-linejoin="round"/>
<path d="M59.74 204.7C56.53 200.87 53.86 196.57 51.84 191.93" stroke="#00A79D" stroke-width="4" stroke-miterlimit="10" stroke-linecap="round" stroke-linejoin="round"/>
<path d="M151.42 160.34C152.13 163.78 152.5 167.35 152.5 171C152.5 199.99 128.99 223.5 100 223.5C86.65 223.5 74.46 218.52 65.2 210.31" stroke="#231F20" stroke-width="4" stroke-miterlimit="10" stroke-linecap="round" stroke-linejoin="round"/>
<path d="M88.26 214.45C86.6 214 84.97 213.46 83.39 212.83" stroke="#00A79D" stroke-width="4" stroke-miterlimit="10" stroke-linecap="round" stroke-linejoin="round"/>
<path d="M57.21 184.97C55.77 180.57 55 175.87 55 171C55 146.15 75.15 126 100 126C124.85 126 145 146.15 145 171C145 195.85 124.85 216 100 216C95.94 216 92.01 215.46 88.26 214.45" stroke="#00A79D" stroke-width="4" stroke-miterlimit="10" stroke-linecap="round" stroke-linejoin="round"/>
<path d="M59.68 191.01C58.72 189.07 57.89 187.06 57.21 184.97" stroke="#00A79D" stroke-width="4" stroke-miterlimit="10" stroke-linecap="round" stroke-linejoin="round"/>
<path d="M137.42 173.52C136.12 193.05 119.87 208.5 100 208.5C89.53 208.5 80.07 204.21 73.26 197.29" stroke="#808285" stroke-width="4" stroke-miterlimit="10" stroke-linecap="round" stroke-linejoin="round"/>
<path d="M137.5 171C137.5 171.85 137.47 172.69 137.42 173.52" stroke="#808285" stroke-width="4" stroke-miterlimit="10" stroke-linecap="round" stroke-linejoin="round"/>
<path d="M63.26 178.56C62.76 176.12 62.5 173.59 62.5 171C62.5 150.29 79.29 133.5 100 133.5C110.36 133.5 119.73 137.7 126.52 144.48" stroke="#231F20" stroke-width="4" stroke-miterlimit="10" stroke-linecap="round" stroke-linejoin="round"/>
</svg>
