<svg width="110" height="110" viewBox="0 0 110 110" fill="none" xmlns="http://www.w3.org/2000/svg">
<path d="M5.91998 36.32C13.45 16.55 32.58 2.5 55 2.5C74.01 2.5 90.66 12.6 99.87 27.73" stroke="#808285" stroke-width="4" stroke-miterlimit="10" stroke-linecap="round" stroke-linejoin="round"/>
<path d="M3.57 65.58C2.87 62.16 2.5 58.62 2.5 55C2.5 48.42 3.71 42.13 5.92 36.32" stroke="#808285" stroke-width="4" stroke-miterlimit="10" stroke-linecap="round" stroke-linejoin="round"/>
<path d="M14.74 88.7C11.53 84.87 8.86003 80.57 6.84003 75.93" stroke="#808285" stroke-width="4" stroke-miterlimit="10" stroke-linecap="round" stroke-linejoin="round"/>
<path d="M106.42 44.34C107.13 47.78 107.5 51.35 107.5 55C107.5 83.99 83.99 107.5 55 107.5C41.65 107.5 29.46 102.52 20.2 94.31" stroke="#808285" stroke-width="4" stroke-miterlimit="10" stroke-linecap="round" stroke-linejoin="round"/>
<path d="M43.26 98.45C41.6 98 39.97 97.46 38.39 96.83" stroke="#808285" stroke-width="4" stroke-miterlimit="10" stroke-linecap="round" stroke-linejoin="round"/>
<path d="M12.21 68.97C10.77 64.57 10 59.87 10 55C10 30.15 30.15 10 55 10C79.85 10 100 30.15 100 55C100 79.85 79.85 100 55 100C50.94 100 47.01 99.46 43.26 98.45" stroke="#808285" stroke-width="4" stroke-miterlimit="10" stroke-linecap="round" stroke-linejoin="round"/>
<path d="M14.68 75.01C13.72 73.07 12.89 71.06 12.21 68.97" stroke="#808285" stroke-width="4" stroke-miterlimit="10" stroke-linecap="round" stroke-linejoin="round"/>
<path d="M92.42 57.52C91.12 77.05 74.87 92.5 55 92.5C44.53 92.5 35.07 88.21 28.26 81.29" stroke="#808285" stroke-width="4" stroke-miterlimit="10" stroke-linecap="round" stroke-linejoin="round"/>
<path d="M92.5 55C92.5 55.85 92.47 56.69 92.42 57.52" stroke="#808285" stroke-width="4" stroke-miterlimit="10" stroke-linecap="round" stroke-linejoin="round"/>
<path d="M18.26 62.56C17.76 60.12 17.5 57.59 17.5 55C17.5 34.29 34.29 17.5 55 17.5C65.36 17.5 74.73 21.7 81.52 28.48" stroke="#808285" stroke-width="4" stroke-miterlimit="10" stroke-linecap="round" stroke-linejoin="round"/>
</svg>
