<svg width="500" height="320" viewBox="0 0 500 320" fill="none" xmlns="http://www.w3.org/2000/svg">
<rect width="500" height="320" fill="#1E1E1E"/>
<path d="M50.92 152.32C58.45 132.55 77.58 118.5 100 118.5C119.01 118.5 135.66 128.6 144.87 143.73" stroke="#808285" stroke-width="4" stroke-miterlimit="10" stroke-linecap="round" stroke-linejoin="round"/>
<path d="M48.57 181.58C47.87 178.16 47.5 174.62 47.5 171C47.5 164.42 48.71 158.13 50.92 152.32" stroke="#231F20" stroke-width="4" stroke-miterlimit="10" stroke-linecap="round" stroke-linejoin="round"/>
<path d="M59.74 204.7C56.53 200.87 53.86 196.57 51.84 191.93" stroke="#00A79D" stroke-width="4" stroke-miterlimit="10" stroke-linecap="round" stroke-linejoin="round"/>
<path d="M151.42 160.34C152.13 163.78 152.5 167.35 152.5 171C152.5 199.99 128.99 223.5 100 223.5C86.65 223.5 74.46 218.52 65.2 210.31" stroke="#231F20" stroke-width="4" stroke-miterlimit="10" stroke-linecap="round" stroke-linejoin="round"/>
<path d="M88.26 214.45C86.6 214 84.97 213.46 83.39 212.83" stroke="#00A79D" stroke-width="4" stroke-miterlimit="10" stroke-linecap="round" stroke-linejoin="round"/>
<path d="M57.21 184.97C55.77 180.57 55 175.87 55 171C55 146.15 75.15 126 100 126C124.85 126 145 146.15 145 171C145 195.85 124.85 216 100 216C95.94 216 92.01 215.46 88.26 214.45" stroke="#00A79D" stroke-width="4" stroke-miterlimit="10" stroke-linecap="round" stroke-linejoin="round"/>
<path d="M59.68 191.01C58.72 189.07 57.89 187.06 57.21 184.97" stroke="#00A79D" stroke-width="4" stroke-miterlimit="10" stroke-linecap="round" stroke-linejoin="round"/>
<path d="M137.42 173.52C136.12 193.05 119.87 208.5 100 208.5C89.53 208.5 80.07 204.21 73.26 197.29" stroke="#808285" stroke-width="4" stroke-miterlimit="10" stroke-linecap="round" stroke-linejoin="round"/>
<path d="M137.5 171C137.5 171.85 137.47 172.69 137.42 173.52" stroke="#808285" stroke-width="4" stroke-miterlimit="10" stroke-linecap="round" stroke-linejoin="round"/>
<path d="M63.26 178.56C62.76 176.12 62.5 173.59 62.5 171C62.5 150.29 79.29 133.5 100 133.5C110.36 133.5 119.73 137.7 126.52 144.48" stroke="#231F20" stroke-width="4" stroke-miterlimit="10" stroke-linecap="round" stroke-linejoin="round"/>
<path d="M200.732 152.674C200.391 149.796 199.008 147.561 196.584 145.97C194.16 144.379 191.186 143.583 187.664 143.583C185.088 143.583 182.834 144 180.902 144.833C178.989 145.667 177.493 146.813 176.414 148.271C175.353 149.729 174.823 151.386 174.823 153.243C174.823 154.796 175.192 156.131 175.931 157.248C176.688 158.347 177.654 159.265 178.828 160.004C180.003 160.724 181.234 161.32 182.522 161.794C183.809 162.248 184.993 162.618 186.073 162.902L191.982 164.493C193.497 164.89 195.183 165.439 197.039 166.14C198.914 166.841 200.703 167.797 202.408 169.01C204.131 170.203 205.552 171.737 206.669 173.612C207.787 175.487 208.345 177.788 208.345 180.515C208.345 183.659 207.522 186.5 205.874 189.038C204.245 191.576 201.859 193.593 198.715 195.089C195.59 196.585 191.792 197.333 187.323 197.333C183.156 197.333 179.548 196.661 176.499 195.316C173.469 193.972 171.082 192.097 169.34 189.691C167.616 187.286 166.641 184.493 166.414 181.311H173.686C173.876 183.508 174.614 185.326 175.902 186.765C177.209 188.186 178.857 189.246 180.845 189.947C182.853 190.629 185.012 190.97 187.323 190.97C190.012 190.97 192.427 190.534 194.567 189.663C196.707 188.773 198.402 187.542 199.652 185.97C200.902 184.379 201.527 182.523 201.527 180.402C201.527 178.47 200.988 176.898 199.908 175.686C198.828 174.474 197.408 173.489 195.647 172.731C193.885 171.974 191.982 171.311 189.936 170.743L182.777 168.697C178.232 167.39 174.633 165.525 171.982 163.1C169.33 160.676 168.005 157.504 168.005 153.583C168.005 150.326 168.885 147.485 170.647 145.061C172.427 142.618 174.813 140.724 177.806 139.379C180.817 138.015 184.179 137.333 187.891 137.333C191.641 137.333 194.974 138.006 197.891 139.35C200.808 140.676 203.118 142.494 204.823 144.805C206.546 147.116 207.455 149.739 207.55 152.674H200.732ZM223.338 212.674C222.202 212.674 221.189 212.58 220.299 212.39C219.408 212.22 218.793 212.049 218.452 211.879L220.157 205.97C221.785 206.386 223.225 206.538 224.475 206.424C225.725 206.311 226.833 205.752 227.799 204.748C228.783 203.763 229.683 202.163 230.497 199.947L231.747 196.538L215.611 152.674H222.884L234.929 187.447H235.384L247.429 152.674H254.702L236.179 202.674C235.346 204.928 234.314 206.794 233.083 208.271C231.852 209.767 230.422 210.875 228.793 211.595C227.183 212.314 225.365 212.674 223.338 212.674ZM270.256 170.061V196.311H263.551V152.674H270.029V159.493H270.597C271.62 157.277 273.173 155.496 275.256 154.152C277.339 152.788 280.029 152.106 283.324 152.106C286.279 152.106 288.864 152.712 291.08 153.924C293.296 155.118 295.019 156.936 296.25 159.379C297.481 161.803 298.097 164.871 298.097 168.583V196.311H291.392V169.038C291.392 165.61 290.502 162.939 288.722 161.027C286.942 159.095 284.498 158.129 281.392 158.129C279.252 158.129 277.339 158.593 275.654 159.521C273.987 160.449 272.671 161.803 271.705 163.583C270.739 165.364 270.256 167.523 270.256 170.061ZM328.076 197.22C323.985 197.22 320.462 196.254 317.507 194.322C314.553 192.39 312.28 189.729 310.689 186.339C309.098 182.949 308.303 179.076 308.303 174.72C308.303 170.288 309.117 166.377 310.746 162.987C312.394 159.578 314.685 156.917 317.621 155.004C320.576 153.072 324.023 152.106 327.962 152.106C331.03 152.106 333.795 152.674 336.257 153.811C338.72 154.947 340.737 156.538 342.309 158.583C343.881 160.629 344.856 163.015 345.235 165.743H338.53C338.019 163.754 336.882 161.993 335.121 160.458C333.379 158.905 331.03 158.129 328.076 158.129C325.462 158.129 323.17 158.811 321.201 160.174C319.25 161.519 317.725 163.422 316.627 165.885C315.547 168.328 315.007 171.197 315.007 174.493C315.007 177.864 315.538 180.799 316.598 183.299C317.678 185.799 319.193 187.741 321.144 189.123C323.113 190.506 325.424 191.197 328.076 191.197C329.818 191.197 331.399 190.894 332.82 190.288C334.24 189.682 335.443 188.811 336.428 187.674C337.413 186.538 338.113 185.174 338.53 183.583H345.235C344.856 186.159 343.918 188.479 342.422 190.544C340.945 192.589 338.985 194.218 336.541 195.43C334.117 196.623 331.295 197.22 328.076 197.22Z" fill="black"/>
<path d="M339.618 144.378V138.128H383.254V144.378H364.959V196.31H357.913V144.378H339.618ZM405.186 197.219C400.982 197.219 397.355 196.291 394.305 194.435C391.275 192.56 388.936 189.947 387.288 186.594C385.66 183.223 384.845 179.303 384.845 174.833C384.845 170.363 385.66 166.424 387.288 163.015C388.936 159.587 391.228 156.916 394.163 155.003C397.118 153.072 400.565 152.106 404.504 152.106C406.777 152.106 409.021 152.485 411.237 153.242C413.453 154 415.47 155.231 417.288 156.935C419.107 158.621 420.555 160.856 421.635 163.64C422.715 166.424 423.254 169.852 423.254 173.924V176.765H389.618V170.969H416.436C416.436 168.507 415.944 166.31 414.959 164.378C413.993 162.447 412.61 160.922 410.811 159.805C409.031 158.687 406.929 158.128 404.504 158.128C401.834 158.128 399.523 158.791 397.572 160.117C395.641 161.424 394.154 163.128 393.112 165.231C392.071 167.333 391.55 169.587 391.55 171.992V175.856C391.55 179.151 392.118 181.945 393.254 184.236C394.41 186.509 396.01 188.242 398.055 189.435C400.101 190.61 402.478 191.197 405.186 191.197C406.947 191.197 408.538 190.95 409.959 190.458C411.398 189.947 412.639 189.189 413.68 188.185C414.722 187.163 415.527 185.894 416.095 184.378L422.572 186.197C421.891 188.394 420.745 190.325 419.135 191.992C417.525 193.64 415.537 194.928 413.169 195.856C410.802 196.765 408.141 197.219 405.186 197.219ZM437.771 138.128L452.771 162.333H453.226L468.226 138.128H476.521L458.226 167.219L476.521 196.31H468.226L453.226 172.56H452.771L437.771 196.31H429.476L448.226 167.219L429.476 138.128H437.771Z" fill="#00A79D"/>
</svg>
